<svg version="1.1" xmlns="http://www.w3.org/2000/svg" viewBox="0 0 320.3978271484377 203.15081787109375" width="640.7956542968755" height="406.3016357421875">
  <!-- svg-source:excalidraw -->
  
  <defs>
    <style class="style-fonts">
      @font-face {
        font-family: "Virgil";
        src: url("https://excalidraw.com/Virgil.woff2");
      }
      @font-face {
        font-family: "Cascadia";
        src: url("https://excalidraw.com/Cascadia.woff2");
      }
      @font-face {
        font-family: "Assistant";
        src: url("https://excalidraw.com/Assistant-Regular.woff2");
      }
    </style>
    
  </defs>
  <g stroke-linecap="round" transform="translate(10 10) rotate(0 150.19891357421886 91.57540893554688)"><path d="M32 0 C95.52 -0.65, 156.43 -2.84, 268.4 0 M268.4 0 C290 -1.75, 300.05 10.13, 300.4 32 M300.4 32 C302.57 63.03, 301.13 91.88, 300.4 151.15 M300.4 151.15 C299.85 171.59, 289.45 184.22, 268.4 183.15 M268.4 183.15 C211.95 183.34, 155.59 183.1, 32 183.15 M32 183.15 C10.15 182.47, -1.57 173.42, 0 151.15 M0 151.15 C0.08 108.13, -0.85 67.65, 0 32 M0 32 C0.83 12.05, 9.92 1.8, 32 0" stroke="#1e1e1e" stroke-width="2.5" fill="none" stroke-dasharray="8 10"></path></g><g transform="translate(66.16694641113281 56.575408935546875) rotate(0 94.03196716308605 45)"><text x="94.03196716308594" y="0" font-family="Virgil, Segoe UI Emoji" font-size="36px" fill="#1e1e1e" text-anchor="middle" style="white-space: pre;" direction="ltr" dominant-baseline="text-before-edge">Yellow Tag</text><text x="94.03196716308594" y="45" font-family="Virgil, Segoe UI Emoji" font-size="36px" fill="#1e1e1e" text-anchor="middle" style="white-space: pre;" direction="ltr" dominant-baseline="text-before-edge">Cover</text></g></svg>